<svg xmlns="http://www.w3.org/2000/svg" version="1.1" xmlns:xlink="http://www.w3.org/1999/xlink" xmlns:svgjs="http://svgjs.dev/svgjs" width="2000" height="404" viewBox="0 0 2000 404"><g transform="matrix(1,0,0,1,-1.2121212121212466,1.092938524063186)"><svg viewBox="0 0 396 80" data-background-color="#ffffff" preserveAspectRatio="xMidYMid meet" height="404" width="2000" xmlns="http://www.w3.org/2000/svg" xmlns:xlink="http://www.w3.org/1999/xlink"><defs></defs><g id="tight-bounds" transform="matrix(1,0,0,1,0.2400000000000091,-0.21642347011152197)"><svg viewBox="0 0 395.52 80.43284694022302" height="80.43284694022302" width="395.52"><g><svg viewBox="0 0 395.52 80.43284694022302" height="80.43284694022302" width="395.52"><g><svg viewBox="0 0 395.52 80.43284694022302" height="80.43284694022302" width="395.52"><g><svg viewBox="0 0 395.52 80.43284694022302" height="80.43284694022302" width="395.52"><g><svg viewBox="0 0 395.52 43.38163426969715" height="43.38163426969715" width="395.52"><g transform="matrix(1,0,0,1,0,0)"><svg width="395.52" viewBox="2.27 -42.19 398.27000000000004 43.949999999999996" height="43.38163426969715" data-palette-color="#46364a"><g class="undefined-text-0" data-fill-palette-color="primary" id="text-0"><path d="M11.06-40.43L11.06 0 9.3 0 9.3-40.43 11.06-40.43ZM7.54-40.43L7.54 0 5.79 0 5.79-40.43 7.54-40.43ZM4.03-40.43L4.03 0 2.27 0 2.27-40.43 4.03-40.43ZM14.58-15.82L14.58-8.79 33.28-8.79 33.28-7.03 14.58-7.03 14.58-5.27 33.28-5.27 33.28-3.52 14.58-3.52 14.58-1.76 33.28-1.76 33.28 0 12.82 0 12.82-40.43 33.28-40.43 33.28-38.67 14.58-38.67 14.58-36.91 33.28-36.91 33.28-35.16 14.58-35.16 14.58-33.4 33.28-33.4 33.28-31.64 14.58-31.64 14.58-24.61 24.17-24.61 24.17-22.85 14.58-22.85 14.58-21.09 24.17-21.09 24.17-19.34 14.58-19.34 14.58-17.58 24.17-17.58 24.17-15.82 14.58-15.82ZM60.13-10.55L48.14-10.55 48.14-29.88Q48.14-29.88 60.13-29.88L60.13-29.88Q63.03-29.88 65.12-27.04 67.21-24.19 67.21-20.21L67.21-20.21Q67.21-16.21 65.12-13.38 63.03-10.55 60.13-10.55L60.13-10.55ZM49.9-28.13L49.9-12.3 60.13-12.3Q62.3-12.3 63.85-14.62 65.4-16.94 65.4-20.21L65.4-20.21Q65.4-23.51 63.85-25.82 62.3-28.13 60.13-28.13L60.13-28.13 49.9-28.13ZM46.38-31.64L46.38-8.79 60.13-8.79Q63.77-8.79 66.39-12.15 69.02-15.5 69.02-20.21L69.02-20.21Q69.02-23.32 67.81-25.95 66.6-28.59 64.56-30.11 62.52-31.64 60.13-31.64L60.13-31.64 46.38-31.64ZM60.13-7.03L44.63-7.03 44.63-33.4 60.13-33.4Q62.99-33.4 65.45-31.64 67.92-29.88 69.37-26.84 70.82-23.8 70.82-20.21L70.82-20.21Q70.82-16.65 69.37-13.6 67.92-10.55 65.45-8.79 62.99-7.03 60.13-7.03L60.13-7.03ZM42.87-35.16L42.87-5.27 60.13-5.27Q63.47-5.27 66.34-7.28 69.21-9.28 70.92-12.72 72.63-16.16 72.63-20.21L72.63-20.21Q72.63-24.24 70.92-27.7 69.21-31.15 66.33-33.15 63.45-35.16 60.13-35.16L60.13-35.16 42.87-35.16ZM60.13-3.52L41.11-3.52 41.11-36.91 60.13-36.91Q63.94-36.91 67.23-34.68 70.53-32.45 72.48-28.59 74.44-24.73 74.44-20.21 74.44-15.7 72.48-11.84 70.53-7.98 67.23-5.75 63.94-3.52 60.13-3.52L60.13-3.52ZM39.35-38.67L39.35-1.76 60.13-1.76Q63.33-1.76 66.31-3.22 69.28-4.69 71.46-7.15 73.63-9.62 74.94-13.05 76.24-16.48 76.24-20.21 76.24-23.95 74.94-27.37 73.63-30.79 71.46-33.26 69.28-35.74 66.31-37.21 63.33-38.67 60.13-38.67L60.13-38.67 39.35-38.67ZM60.13 0L60.13 0 37.6 0 37.6-40.43 60.13-40.43Q64.89-40.43 69.02-37.72 73.14-35.01 75.6-30.35 78.05-25.68 78.05-20.21L78.05-20.21Q78.05-16.11 76.6-12.37 75.14-8.62 72.73-5.91 70.31-3.2 67-1.6 63.69 0 60.13 0ZM90.69-40.43L90.69 0 88.94 0 88.94-40.43 90.69-40.43ZM87.18-40.43L87.18 0 85.42 0 85.42-40.43 87.18-40.43ZM83.66-40.43L83.66 0 81.9 0 81.9-40.43 83.66-40.43ZM94.21-15.82L94.21-8.79 112.91-8.79 112.91-7.03 94.21-7.03 94.21-5.27 112.91-5.27 112.91-3.52 94.21-3.52 94.21-1.76 112.91-1.76 112.91 0 92.45 0 92.45-40.43 112.91-40.43 112.91-38.67 94.21-38.67 94.21-36.91 112.91-36.91 112.91-35.16 94.21-35.16 94.21-33.4 112.91-33.4 112.91-31.64 94.21-31.64 94.21-24.61 103.8-24.61 103.8-22.85 94.21-22.85 94.21-21.09 103.8-21.09 103.8-19.34 94.21-19.34 94.21-17.58 103.8-17.58 103.8-15.82 94.21-15.82ZM145.94-40.43L145.94-19.46 144.18-22.36 144.18-40.43 145.94-40.43ZM149.46-40.43L149.46-13.7 147.7-16.65 147.7-40.43 149.46-40.43ZM152.97-40.43L152.97-7.86 151.21-10.84 151.21-40.43 152.97-40.43ZM127.78 0L127.78-20.97 129.53-18.07 129.53 0 127.78 0ZM124.26 0L124.26-26.73 126.02-23.78 126.02 0 124.26 0ZM120.74 0L120.74-32.57 122.5-29.59 122.5 0 120.74 0ZM146.21 0L121.35-40.43 123.41-40.43 148.26 0 146.21 0ZM150.31 0L125.51-40.43 127.58-40.43 152.41 0 150.31 0ZM154.41 0L129.63-40.43 131.68-40.43 154.73-2.86 154.73-40.43 156.49-40.43 156.49 0Q156.49 0 154.41 0L154.41 0ZM142.08 0L118.99-37.57 118.99 0 117.23 0 117.23-40.43Q117.23-40.43 119.33-40.43L119.33-40.43 144.11 0 142.08 0Z" fill="#46364a" data-fill-palette-color="primary"></path><path d="M187.86 0L187.86-14.75 189.62-18.07 189.62 0 187.86 0ZM191.38 0L191.38-21.48 193.14-24.8 193.14 0 191.38 0ZM194.89 0L194.89-28.13 196.65-31.47 196.65 0 194.89 0ZM196.19-40.43L183.1-15.58 182.1-17.41 194.21-40.43 196.19-40.43ZM192.21-40.43L181.07-19.41 180.05-21.26 190.21-40.43 192.21-40.43ZM169.31 0L169.31-17.87 171.07-14.55 171.07 0 169.31 0ZM165.79 0L165.79-24.56 167.55-21.24 167.55 0 165.79 0ZM162.28 0L162.28-31.25 164.03-27.91 164.03 0 162.28 0ZM160.74-40.43L176.49-10.55 174.51-10.55 160.52-37.08 160.52 0 158.76 0 158.76-40.43 160.74-40.43ZM164.74-40.43L180.46-10.55 178.46-10.55 162.74-40.43 164.74-40.43ZM198.41 0L198.41-37.08 184.42-10.55 182.42-10.55 166.72-40.43 168.7-40.43 183.44-12.4 198.16-40.43 200.17-40.43 200.17 0 198.41 0ZM229.68-11.87L222.26-11.87 222.97-13.62 228.97-13.62 229.68-11.87ZM231.1-8.35L220.89-8.35 221.58-10.11 230.34-10.11 231.1-8.35ZM232.46-4.83L219.52-4.83 220.21-6.59 231.73-6.59 232.46-4.83ZM220.28-38.06L205.24 0 203.34 0 219.33-40.43 221.23-40.43 237.2 0 235.32 0 220.28-38.06ZM207.12 0L220.5-33.89 221.5-31.64 209 0 207.12 0ZM210.91 0L222.45-29.25 223.38-26.83 212.81 0 210.91 0ZM214.69 0L224.31-24.41 225.24-21.95 216.57 0 214.69 0ZM232.56-40.43L248.55 0 246.65 0 230.68-40.43 232.56-40.43ZM226.9-40.43L228.78-40.43 244.77 0 242.89 0 226.9-40.43ZM223.11-40.43L224.99-40.43 240.98 0 239.08 0 223.11-40.43ZM262.17 0L262.17-40.43 263.93-40.43 263.93 0 262.17 0ZM258.66 0L258.66-40.43 260.42-40.43 260.42 0 258.66 0ZM255.14 0L255.14-40.43 256.9-40.43 256.9 0 255.14 0ZM251.63 0L251.63-40.43 253.38-40.43 253.38 0 251.63 0ZM297.67 0L297.67-14.75 299.43-18.07 299.43 0 297.67 0ZM301.18 0L301.18-21.48 302.94-24.8 302.94 0 301.18 0ZM304.7 0L304.7-28.13 306.46-31.47 306.46 0 304.7 0ZM305.99-40.43L292.91-15.58 291.91-17.41 304.02-40.43 305.99-40.43ZM302.01-40.43L290.88-19.41 289.86-21.26 300.01-40.43 302.01-40.43ZM279.11 0L279.11-17.87 280.87-14.55 280.87 0 279.11 0ZM275.6 0L275.6-24.56 277.36-21.24 277.36 0 275.6 0ZM272.08 0L272.08-31.25 273.84-27.91 273.84 0 272.08 0ZM270.55-40.43L286.29-10.55 284.31-10.55 270.33-37.08 270.33 0 268.57 0 268.57-40.43 270.55-40.43ZM274.55-40.43L290.27-10.55 288.27-10.55 272.55-40.43 274.55-40.43ZM308.22 0L308.22-37.08 294.23-10.55 292.22-10.55 276.53-40.43 278.5-40.43 293.25-12.4 307.97-40.43 309.97-40.43 309.97 0 308.22 0ZM328.84-27.05Q326.01-24.22 326.01-20.21 326.01-16.21 328.84-13.38 331.68-10.55 335.68-10.55 339.68-10.55 342.52-13.38 345.35-16.21 345.35-20.21 345.35-24.22 342.52-27.05 339.68-29.88 335.68-29.88 331.68-29.88 328.84-27.05ZM325.16-15.78Q324.25-17.9 324.25-20.21 324.25-22.53 325.16-24.65 326.06-26.76 327.6-28.3 329.14-29.83 331.25-30.74 333.36-31.64 335.68-31.64 338-31.64 340.11-30.74 342.22-29.83 343.76-28.3 345.3-26.76 346.2-24.65 347.11-22.53 347.11-20.21 347.11-17.9 346.2-15.78 345.3-13.67 343.76-12.13 342.22-10.6 340.11-9.69 338-8.79 335.68-8.79 333.36-8.79 331.25-9.69 329.14-10.6 327.6-12.13 326.06-13.67 325.16-15.78ZM324.27-26.83Q322.5-23.8 322.5-20.21 322.5-16.63 324.27-13.6 326.04-10.57 329.06-8.8 332.09-7.03 335.68-7.03 339.27-7.03 342.3-8.8 345.32-10.57 347.09-13.6 348.86-16.63 348.86-20.21 348.86-23.8 347.09-26.83 345.32-29.86 342.3-31.63 339.27-33.4 335.68-33.4 332.09-33.4 329.06-31.63 326.04-29.86 324.27-26.83ZM322.74-12.72Q320.74-16.16 320.74-20.21 320.74-24.27 322.74-27.71 324.74-31.15 328.18-33.15 331.63-35.16 335.68-35.16 339.73-35.16 343.17-33.15 346.62-31.15 348.62-27.71 350.62-24.27 350.62-20.21 350.62-16.16 348.62-12.72 346.62-9.28 343.17-7.28 339.73-5.27 335.68-5.27 331.63-5.27 328.18-7.28 324.74-9.28 322.74-12.72ZM320.3-26.71Q318.98-23.61 318.98-20.21 318.98-16.82 320.3-13.72 321.62-10.62 323.85-8.39 326.08-6.15 329.19-4.83 332.29-3.52 335.68-3.52 339.07-3.52 342.17-4.83 345.27-6.15 347.51-8.39 349.74-10.62 351.06-13.72 352.38-16.82 352.38-20.21 352.38-23.61 351.06-26.71 349.74-29.81 347.51-32.04 345.27-34.28 342.17-35.6 339.07-36.91 335.68-36.91 332.29-36.91 329.19-35.6 326.08-34.28 323.85-32.04 321.62-29.81 320.3-26.71ZM319.7-10.96Q317.22-15.21 317.22-20.21 317.22-25.22 319.7-29.47 322.18-33.72 326.43-36.19 330.67-38.67 335.68-38.67 340.68-38.67 344.93-36.19 349.18-33.72 351.66-29.47 354.14-25.22 354.14-20.21 354.14-15.21 351.66-10.96 349.18-6.71 344.93-4.24 340.68-1.76 335.68-1.76 330.67-1.76 326.43-4.24 322.18-6.71 319.7-10.96ZM317.06-28.06Q315.46-24.32 315.46-20.21 315.46-16.11 317.06-12.37 318.66-8.62 321.37-5.91 324.08-3.2 327.83-1.6 331.58 0 335.68 0 339.78 0 343.53-1.6 347.28-3.2 349.99-5.91 352.7-8.62 354.29-12.37 355.89-16.11 355.89-20.21 355.89-24.32 354.29-28.06 352.7-31.81 349.99-34.52 347.28-37.23 343.53-38.83 339.78-40.43 335.68-40.43 331.58-40.43 327.83-38.83 324.08-37.23 321.37-34.52 318.66-31.81 317.06-28.06ZM315.45-11.68Q313.71-15.75 313.71-20.21 313.71-24.68 315.45-28.75 317.2-32.81 320.14-35.75 323.08-38.7 327.15-40.44 331.21-42.19 335.68-42.19 340.15-42.19 344.21-40.44 348.28-38.7 351.22-35.75 354.16-32.81 355.91-28.75 357.65-24.68 357.65-20.21 357.65-15.75 355.91-11.68 354.16-7.62 351.22-4.68 348.28-1.73 344.21 0.01 340.15 1.76 335.68 1.76 331.21 1.76 327.15 0.01 323.08-1.73 320.14-4.68 317.2-7.62 315.45-11.68ZM390-40.43L390-19.46 388.24-22.36 388.24-40.43 390-40.43ZM393.51-40.43L393.51-13.7 391.76-16.65 391.76-40.43 393.51-40.43ZM397.03-40.43L397.03-7.86 395.27-10.84 395.27-40.43 397.03-40.43ZM371.83 0L371.83-20.97 373.59-18.07 373.59 0 371.83 0ZM368.32 0L368.32-26.73 370.08-23.78 370.08 0 368.32 0ZM364.8 0L364.8-32.57 366.56-29.59 366.56 0 364.8 0ZM390.27 0L365.41-40.43 367.46-40.43 392.32 0 390.27 0ZM394.37 0L369.56-40.43 371.64-40.43 396.47 0 394.37 0ZM398.47 0L373.69-40.43 375.74-40.43 398.79-2.86 398.79-40.43 400.54-40.43 400.54 0Q400.54 0 398.47 0L398.47 0ZM386.14 0L363.04-37.57 363.04 0 361.29 0 361.29-40.43Q361.29-40.43 363.39-40.43L363.39-40.43 388.17 0 386.14 0Z" fill="#9d1d39" data-fill-palette-color="secondary"></path></g></svg></g></svg></g><g transform="matrix(1,0,0,1,0,53.62299696155018)"><svg viewBox="0 0 94.77233556456726 26.809849978672837" height="26.809849978672837" width="94.77233556456726"><g transform="matrix(1,0,0,1,0,0)"><svg width="94.77233556456726" viewBox="2.494186046511628 -35.9 169.83581395348838 48.05" height="26.809849978672837" data-palette-color="#9d1d39"><path d="M18.3-13.65Q17.35-13.3 16.75-13.3L16.75-13.3Q15.65-13.3 14.68-14.05 13.7-14.8 13.05-16.1L13.05-16.1 14.45-17Q16.85-18.6 18-19.45L18-19.45Q21.85-22.45 24.7-25.05L24.7-25.05Q25.25-25.5 26-26.9L26-26.9 26.7-28.1 25.8-28.55Q25.65-28.6 25.13-28.83 24.6-29.05 24.25-29.1L24.25-29.1Q19.9-29.55 14.5-29.9L14.5-29.9Q12.8-30.05 12.3-28.05L12.3-28.05 8.1-8.6Q7.75-7.1 7.55-5.98 7.35-4.85 7.2-4.1L7.2-4.1 6.75-1.85Q6.55-1.05 6.1-0.58 5.65-0.1 4.8-0.05L4.8-0.05 4.15 0Q3.2 0 2.83-0.45 2.45-0.9 2.5-2.05L2.5-2.05 2.6-4.05Q2.9-9.95 3.35-12.9L3.35-12.9Q3.65-15.05 4.23-17.65 4.8-20.25 5-21.05L5-21.05Q5.7-23.95 6-25.45L6-25.45 3.4-25.9Q2.8-27.2 2.8-28.15L2.8-28.15Q2.8-29.75 4.3-31.4L4.3-31.4Q5.35-32.6 6.8-33.35 8.25-34.1 9.8-34.35L9.8-34.35Q12.05-34.6 13.8-34.6L13.8-34.6Q20.65-34.6 27.7-31.7L27.7-31.7Q28.55-31.35 29.4-30.63 30.25-29.9 30.5-29.7L30.5-29.7Q32.45-28.05 32.45-26.25L32.45-26.25Q32.45-25.05 31.7-23.6L31.7-23.6Q31.3-22.75 30.35-21.65L30.35-21.65Q25.7-16.55 18.3-13.65L18.3-13.65ZM37.15-3.35Q35.6-2.4 33.6-2.4L33.6-2.4Q31.4-2.4 29.37-3.53 27.35-4.65 26.15-6.75 24.95-8.85 25.15-11.55L25.15-11.55 25.4-12.75Q25.7-14.55 25.9-15.4L25.9-15.4Q26.35-17.25 27.7-18 29.05-18.75 31.3-19.2L31.3-19.2Q32.75-19.5 34.15-19.5L34.15-19.5Q38.55-19.5 41.55-16.55L41.55-16.55Q43.15-14.95 43.15-12.65L43.15-12.65Q43.15-10.4 41.5-7.8L41.5-7.8Q39.6-4.85 37.15-3.35L37.15-3.35ZM32.95-16.95Q32.15-15 31.25-12.1L31.25-12.1 30.75-10.6 31.1-10.45Q31.1-10.1 31.12-9.38 31.15-8.65 31.3-8.15L31.3-8.15Q31.85-6.6 32.55-6.25L32.55-6.25Q32.85-6.1 33.42-6.4 34-6.7 34.45-7.1L34.45-7.1Q35.15-7.7 36.7-9.6L36.7-9.6Q37.85-10.9 37.85-12.7L37.85-12.7Q37.85-14.25 36.97-15.5 36.1-16.75 34.55-17.2L34.55-17.2Q34.4-17.25 34-17.25L34-17.25Q33.05-17.25 32.95-16.95L32.95-16.95ZM53.65-21.2Q53.8-20.7 53.7-19.65L53.7-19.65 53.09-13.75Q53.34-13.95 53.84-15.18 54.34-16.4 54.8-17.18 55.25-17.95 55.5-18.2L55.5-18.2Q57.84-20.45 60.8-20.9 63.75-21.35 67.3-21.3L67.3-21.3Q67.65-21.3 68.07-21.03 68.5-20.75 68.5-20.58 68.5-20.4 68.2-20.03 67.9-19.65 67.65-19.55L67.65-19.55Q64.65-18.55 62.37-17.25 60.09-15.95 58.45-13.85L58.45-13.85Q54.55-8.9 53.95-3.65L53.95-3.65Q53.8-2.25 53.09-1.78 52.4-1.3 51.15-1.3L51.15-1.3Q49.75-1.3 48.65-2.5 47.55-3.7 47.55-5.15L47.55-5.15Q47.59-10.45 47.59-21.05L47.59-21.05Q47.59-22.5 48.25-23.08 48.9-23.65 50.59-23.65L50.59-23.65Q51.84-23.65 52.72-22.95 53.59-22.25 53.65-21.2L53.65-21.2ZM69.74-18.65Q69.39-19.05 69.27-19.5 69.14-19.95 69.04-20.75L69.04-20.75Q69.49-21.8 70.69-21.8L70.69-21.8Q71.29-21.7 71.54-21.7L71.54-21.7Q72.54-21.7 72.79-22.3 73.04-22.9 73.04-23.7 73.04-24.5 73.04-24.95L73.04-24.95 73.19-27.95Q73.24-28.95 73.32-30.43 73.39-31.9 73.49-33.85L73.49-33.85Q73.54-34.9 74.02-35.4 74.49-35.9 75.34-35.9L75.34-35.9Q75.94-35.9 76.29-35.8L76.29-35.8Q78.34-35.35 79.04-34.5 79.74-33.65 79.99-31.95L79.99-31.95Q80.04-31.6 79.89-30.5L79.89-30.5 78.99-22.7Q78.94-22.4 78.84-21.98 78.74-21.55 78.74-21.35L78.74-21.35Q78.74-20.9 79.24-20.75 79.74-20.6 81.09-20.65L81.09-20.65Q83.39-21.15 84.59-21.3L84.59-21.3Q84.84-21.35 85.39-21.35L85.39-21.35Q85.99-21.35 86.19-21.2L86.19-21.2Q86.39-21.1 86.52-20.63 86.64-20.15 86.64-19.55L86.64-19.55Q86.64-19 86.52-18.55 86.39-18.1 86.19-18.05L86.19-18.05Q84.84-17.65 82.99-17.4L82.99-17.4Q80.79-17 79.74-16.7L79.74-16.7Q79.19-16.55 78.64-15.95 78.09-15.35 78.04-14.85L78.04-14.85Q77.94-12.4 77.89-9.85L77.89-9.85Q77.84-7.9 78.04-5.95L78.04-5.95Q78.19-4.3 78.69-3.58 79.19-2.85 80.19-2.85L80.19-2.85Q80.99-2.85 82.49-3.4L82.49-3.4Q83.29-3.75 83.89-3.75L83.89-3.75Q84.84-3.75 85.24-2.7L85.24-2.7Q85.39-2.35 85.39-2L85.39-2Q85.39-1.35 84.92-0.95 84.44-0.55 83.64-0.25L83.64-0.25Q82.14 0.3 80.59 0.35L80.59 0.35Q78.49 0.35 76.64-0.68 74.79-1.7 73.72-3.55 72.64-5.4 72.79-7.8L72.79-7.8Q72.84-8.75 72.84-10.8L72.84-10.8Q72.84-14.05 72.59-17.4L72.59-17.4Q72.54-17.7 72.24-17.82 71.94-17.95 71.24-18.1L71.24-18.1Q70.09-18.3 69.74-18.65L69.74-18.65ZM98.09-15.7Q98.09-13.9 98.27-13.35 98.44-12.8 99.14-12.8L99.14-12.8Q99.79-12.8 101.19-13.1L101.19-13.1 102.34-13.1Q105.19-13.1 105.84-11.85L105.84-11.85Q106.09-11.75 106.34-11.33 106.59-10.9 106.69-10.75L106.69-10.75Q106.49-10.6 106.09-10.28 105.69-9.95 105.34-9.9L105.34-9.9Q104.19-9.65 101.89-9.25L101.89-9.25Q101.44-9.2 100.29-9L100.29-9Q98.49-8.65 98.49-6.9L98.49-6.9Q98.49-6.65 98.59-5.95L98.59-5.95Q99.19-3.25 99.59-1.23 99.99 0.8 100.24 2.15L100.24 2.15 101.14 6.55Q101.64 8.95 101.64 10.25L101.64 10.25Q101.64 11.2 101.19 11.68 100.74 12.15 99.44 12.15L99.44 12.15Q98.34 12.15 97.79 11.6 97.24 11.05 96.99 9.85L96.99 9.85Q96.54 7.55 95.44 2.95L95.44 2.95 93.84-5.35Q93.74-8.25 90.99-8.25L90.99-8.25Q90.09-8.25 89.74-8.55L89.74-8.55Q89.44-8.8 89.19-9.13 88.94-9.45 88.94-9.75L88.94-9.75Q88.94-10 89.27-10.33 89.59-10.65 89.89-10.7L89.89-10.7Q91.69-10.95 92.32-11.7 92.94-12.45 92.99-14.05L92.99-14.05 93.09-17.25Q93.14-19.35 93.24-21.55 93.34-23.75 93.59-25.45L93.59-25.45Q93.79-26.9 94.84-27.58 95.89-28.25 97.74-28.25L97.74-28.25Q98.54-28.25 98.99-28.2L98.99-28.2Q100.04-28.1 101.39-27.23 102.74-26.35 102.84-25.35L102.84-25.35Q103.34-22.5 100.74-22.25L100.74-22.25Q99.04-22.6 98.74-21.85 98.44-21.1 98.34-20L98.34-20Q98.34-19.35 98.24-18.15L98.24-18.15Q98.09-16.95 98.09-15.7L98.09-15.7ZM120.49-3.35Q118.94-2.4 116.94-2.4L116.94-2.4Q114.74-2.4 112.71-3.53 110.69-4.65 109.49-6.75 108.29-8.85 108.49-11.55L108.49-11.55 108.74-12.75Q109.04-14.55 109.24-15.4L109.24-15.4Q109.69-17.25 111.04-18 112.39-18.75 114.64-19.2L114.64-19.2Q116.09-19.5 117.49-19.5L117.49-19.5Q121.89-19.5 124.89-16.55L124.89-16.55Q126.49-14.95 126.49-12.65L126.49-12.65Q126.49-10.4 124.84-7.8L124.84-7.8Q122.94-4.85 120.49-3.35L120.49-3.35ZM116.29-16.95Q115.49-15 114.59-12.1L114.59-12.1 114.09-10.6 114.44-10.45Q114.44-10.1 114.46-9.38 114.49-8.65 114.64-8.15L114.64-8.15Q115.19-6.6 115.89-6.25L115.89-6.25Q116.19-6.1 116.76-6.4 117.34-6.7 117.79-7.1L117.79-7.1Q118.49-7.7 120.04-9.6L120.04-9.6Q121.19-10.9 121.19-12.7L121.19-12.7Q121.19-14.25 120.31-15.5 119.44-16.75 117.89-17.2L117.89-17.2Q117.74-17.25 117.34-17.25L117.34-17.25Q116.39-17.25 116.29-16.95L116.29-16.95ZM136.14-2.3Q137.14-3.5 137.59-4.2L137.59-4.2Q138.14-4.95 138.74-4.95L138.74-4.95Q139.34-4.95 139.64-4.2L139.64-4.2Q140.34-2.2 140.34-1.05L140.34-1.05Q140.34-0.55 140.29-0.3L140.29-0.3Q140.09 0.7 139.16 1.1 138.24 1.5 136.99 1.4L136.99 1.4Q136.54 1.4 135.46 1.4 134.39 1.4 133.61 1.1 132.84 0.8 132.24 0.1L132.24 0.1Q130.94-1.45 130.94-2.9L130.94-2.9Q130.94-14.6 130.84-20.5L130.84-20.5 130.79-29.3Q130.79-31.05 130.44-32.5L130.44-32.5Q130.39-32.75 130.39-33.1L130.39-33.1Q130.39-34.95 132.89-34.95L132.89-34.95Q134.54-34.95 135.66-33.88 136.79-32.8 136.69-31.05L136.69-31.05Q136.54-28.4 136.29-23.1L136.29-23.1 135.99-17.1Q135.59-8.6 135.44-4.35L135.44-4.35Q135.39-3.85 135.49-3.25 135.59-2.65 135.64-2.5L135.64-2.5 136.14-2.3ZM148.58-23.3Q148.48-23 147.86-22.65 147.23-22.3 146.83-22L146.83-22 145.43-22.75Q143.38-23.85 142.63-24.5L142.63-24.5Q142.23-24.8 142.23-25.25L142.23-25.25Q142.23-25.55 142.46-25.78 142.68-26 143.13-26L143.13-26Q145.08-26 147.88-25L147.88-25Q148.18-24.95 148.43-24.33 148.68-23.7 148.58-23.3L148.58-23.3ZM144.08-14Q144.23-14.65 144.28-14.95 144.33-15.25 144.33-15.6L144.33-15.6Q144.33-16.3 144.76-16.7 145.18-17.1 146.38-17.1L146.38-17.1Q147.78-17.1 148.86-16.23 149.93-15.35 150.18-13.95L150.18-13.95Q150.33-13.25 150.38-12.4 150.43-11.55 150.43-11.3L150.43-11.3 151.13-2.75Q151.28-1.4 150.76-0.68 150.23 0.05 148.78 0.05L148.78 0.05Q147.53 0.05 146.66-0.65 145.78-1.35 145.58-2.45L145.58-2.45 144.28-13.05 144.08-14ZM166.33-3.35Q164.78-2.4 162.78-2.4L162.78-2.4Q160.58-2.4 158.56-3.53 156.53-4.65 155.33-6.75 154.13-8.85 154.33-11.55L154.33-11.55 154.58-12.75Q154.88-14.55 155.08-15.4L155.08-15.4Q155.53-17.25 156.88-18 158.23-18.75 160.48-19.2L160.48-19.2Q161.93-19.5 163.33-19.5L163.33-19.5Q167.73-19.5 170.73-16.55L170.73-16.55Q172.33-14.95 172.33-12.65L172.33-12.65Q172.33-10.4 170.68-7.8L170.68-7.8Q168.78-4.85 166.33-3.35L166.33-3.35ZM162.13-16.95Q161.33-15 160.43-12.1L160.43-12.1 159.93-10.6 160.28-10.45Q160.28-10.1 160.31-9.38 160.33-8.65 160.48-8.15L160.48-8.15Q161.03-6.6 161.73-6.25L161.73-6.25Q162.03-6.1 162.61-6.4 163.18-6.7 163.63-7.1L163.63-7.1Q164.33-7.7 165.88-9.6L165.88-9.6Q167.03-10.9 167.03-12.7L167.03-12.7Q167.03-14.25 166.16-15.5 165.28-16.75 163.73-17.2L163.73-17.2Q163.58-17.25 163.18-17.25L163.18-17.25Q162.23-17.25 162.13-16.95L162.13-16.95Z" opacity="1" transform="matrix(1,0,0,1,0,0)" fill="#9d1d39" class="undefined-text-1" data-fill-palette-color="secondary" id="text-1"></path></svg></g></svg></g></svg></g></svg></g></svg></g></svg><rect width="395.52" height="80.43284694022302" fill="none" stroke="none" visibility="hidden"></rect></g></svg></g></svg>